<svg xmlns="http://www.w3.org/2000/svg" viewBox="0 0 128 128">
  <defs>
    <radialGradient id="bg" cx="50%" cy="35%" r="75%">
      <stop offset="0%" stop-color="#9ad1ff"/>
      <stop offset="45%" stop-color="#6aa8ff"/>
      <stop offset="100%" stop-color="#140b2e"/>
    </radialGradient>

    <radialGradient id="shine" cx="35%" cy="25%" r="55%">
      <stop offset="0%" stop-color="#ffffff" stop-opacity="0.55"/>
      <stop offset="55%" stop-color="#ffffff" stop-opacity="0.10"/>
      <stop offset="100%" stop-color="#ffffff" stop-opacity="0"/>
    </radialGradient>

    <linearGradient id="ghost" x1="0" y1="0" x2="0" y2="1">
      <stop offset="0%" stop-color="#ffffff"/>
      <stop offset="60%" stop-color="#e9fbff"/>
      <stop offset="100%" stop-color="#cfefff"/>
    </linearGradient>

    <filter id="outerGlow" x="-40%" y="-40%" width="180%" height="180%">
      <feGaussianBlur stdDeviation="6" result="b"/>
      <feColorMatrix in="b" type="matrix"
        values="1 0 0 0 0
                0 0.9 0 0 0
                0 0 1 0 0
                0 0 0 0.65 0" result="g"/>
      <feMerge>
        <feMergeNode in="g"/>
        <feMergeNode in="SourceGraphic"/>
      </feMerge>
    </filter>

    <filter id="softGlow" x="-30%" y="-30%" width="160%" height="160%">
      <feGaussianBlur stdDeviation="3" result="b"/>
      <feMerge>
        <feMergeNode in="b"/>
        <feMergeNode in="SourceGraphic"/>
      </feMerge>
    </filter>
  </defs>

  <circle cx="64" cy="64" r="58" fill="url(#bg)"/>
  <circle cx="64" cy="64" r="52" fill="none" stroke="#bfe2ff" stroke-opacity="0.25" stroke-width="2"/>

  <path d="M22 58 C28 30, 54 18, 78 22 C58 24, 40 34, 34 54 C31 64, 26 66, 22 58 Z"
        fill="url(#shine)"/>

  <g opacity="0.9" filter="url(#softGlow)">
    <circle cx="94" cy="40" r="2.2" fill="#c7b2ff"/>
    <circle cx="104" cy="56" r="1.6" fill="#9ad1ff"/>
    <circle cx="86" cy="26" r="1.4" fill="#ffd1ff"/>
    <circle cx="28" cy="78" r="1.7" fill="#9ad1ff"/>
    <circle cx="40" cy="92" r="1.3" fill="#c7b2ff"/>
  </g>

  <g filter="url(#outerGlow)">
    <path d="
      M64 26
      C47 26 36 39 36 54
      V80
      C36 90 42 96 42 96
      C46 90 51 96 56 96
      C60 96 60 90 64 90
      C68 90 68 96 72 96
      C77 96 82 90 86 96
      C90 96 92 90 92 80
      V54
      C92 39 81 26 64 26
      Z"
      fill="url(#ghost)"/>
    <circle cx="48" cy="66" r="5" fill="#ff8ad6" opacity="0.22"/>
    <circle cx="80" cy="66" r="5" fill="#8affd6" opacity="0.18"/>

    <circle cx="52" cy="55" r="6.3" fill="#231a48"/>
    <circle cx="76" cy="55" r="6.3" fill="#231a48"/>
    <circle cx="50.5" cy="53.5" r="2" fill="#ffffff" opacity="0.95"/>
    <circle cx="74.5" cy="53.5" r="2" fill="#ffffff" opacity="0.95"/>

    <path d="M58 70 Q64 76 70 70" fill="none" stroke="#231a48" stroke-width="5.5" stroke-linecap="round"/>
  </g>
</svg>
